<svg width="75" height="37" viewBox="0 0 75 37" fill="none" xmlns="http://www.w3.org/2000/svg">
<g clip-path="url(#clip0_2054_1543)">
<path d="M5.506 28.1052C11.3555 23.2261 18.4341 20.0159 25.9682 18.859C33.9046 17.6404 42.8976 17.6977 50.0294 19.4198C54.915 20.6032 55.6091 20.8195 56.8339 21.5746C54.7249 24.1621 47.8142 28.5424 48.2077 33.8543C48.2917 35.0199 49.6447 35.6249 50.5776 34.9229C56.4669 30.4852 68.7186 23.2128 73.9005 18.6648C74.4442 18.1878 75.0367 17.605 75.0014 16.8809C74.9704 16.1788 74.3647 15.6621 73.8076 15.2338C66.7466 9.84247 59.332 4.91028 51.6344 0.477064C50.5776 -0.132283 49.1716 0.194468 48.5969 1.27186C48.0929 2.20796 48.6322 2.93212 49.1406 3.57679C51.5459 6.62794 53.9511 9.67909 56.3564 12.7347C43.9941 7.51988 29.5495 7.74508 17.1874 12.8715C10.2501 15.746 4.48466 20.9256 1.1023 27.6151C-0.710469 31.2094 -0.922695 33.4657 5.506 28.1052Z" fill="#CA8E64"/>
</g>
<defs>
<clipPath id="clip0_2054_1543">
<rect width="75" height="36" fill="white" transform="translate(0 0.171875)"/>
</clipPath>
</defs>
</svg>
