<svg width="95" height="95" viewBox="0 0 95 95" fill="none" xmlns="http://www.w3.org/2000/svg">
<path d="M89.4116 47.5C90.6633 45.5906 90.9557 43.1465 90.806 40.673C91.3238 40.7178 91.8519 40.6108 92.3203 40.3043C92.9507 39.8917 93.3466 39.1999 93.437 38.4686C93.5077 38.3338 93.5481 38.1835 93.5352 38.0189C93.5288 37.9651 93.5291 37.9113 93.5303 37.8572C93.5335 37.8467 93.5379 37.8294 93.5434 37.8058C93.5487 37.7976 93.5577 37.7803 93.5689 37.7607C93.5753 37.7552 93.577 37.7543 93.5914 37.7391L93.5917 37.7388C93.699 37.6797 93.7139 37.6724 93.6349 37.7175C93.6545 37.7131 93.6668 37.7099 93.6808 37.7066C93.7086 37.7075 93.732 37.7084 93.7481 37.7087C94.2633 37.7979 94.8475 37.5414 94.9729 36.9897C95.0066 36.8417 95.008 36.6838 94.9794 36.5309C94.8914 36.4022 94.7788 36.2911 94.6504 36.2107C94.1715 35.9095 93.5767 36.1411 93.2756 36.5686C93.2648 36.5797 93.2487 36.5967 93.2297 36.6172C93.2177 36.6248 93.2069 36.6312 93.1893 36.642C93.277 36.618 93.2613 36.623 93.1434 36.6572H93.1425C93.1221 36.6569 93.12 36.6575 93.1115 36.6575C93.0899 36.6514 93.0712 36.6464 93.0621 36.6438C93.0414 36.6312 93.0259 36.6221 93.0159 36.6169C92.9773 36.5794 92.9387 36.5417 92.9054 36.499C92.7981 36.3739 92.6633 36.2958 92.5183 36.2505C91.9367 35.7973 91.1683 35.5882 90.4306 35.7423C89.8823 35.8569 89.4338 36.1546 89.0993 36.5525C87.4426 34.6823 85.4891 33.1505 83.2297 32.6999C84.5084 30.7832 84.8066 28.3194 84.6558 25.825C85.1736 25.87 85.7017 25.763 86.1701 25.4565C86.8005 25.0437 87.1964 24.3524 87.2867 23.6208C87.3575 23.486 87.3972 23.3355 87.385 23.1711C87.3785 23.1173 87.3788 23.0635 87.38 23.0094C87.3832 22.9986 87.3876 22.9814 87.3938 22.9577C87.3987 22.9498 87.4078 22.9328 87.4186 22.9129C87.4247 22.9074 87.4265 22.9062 87.4411 22.8916L87.4414 22.8907C87.5487 22.8316 87.5636 22.8243 87.4847 22.8691C87.5043 22.8647 87.5165 22.8615 87.5306 22.8586C87.5584 22.8594 87.5818 22.86 87.5973 22.8606C88.1128 22.9498 88.697 22.6931 88.8224 22.1413C88.856 21.9936 88.8575 21.8357 88.8288 21.6825C88.7408 21.5542 88.6282 21.4433 88.4999 21.3629C88.0209 21.0612 87.4262 21.293 87.125 21.7205C87.1142 21.7322 87.0981 21.7492 87.0791 21.7697C87.0665 21.7773 87.0563 21.7834 87.0388 21.7942C87.1265 21.7705 87.1107 21.7758 86.9929 21.81C86.9721 21.8097 86.9698 21.81 86.9613 21.8109C86.9397 21.8044 86.9209 21.7989 86.9116 21.7968C86.8911 21.784 86.8759 21.7746 86.8663 21.7699C86.8274 21.7325 86.7885 21.6948 86.7552 21.6521C86.6479 21.5267 86.5131 21.4486 86.368 21.4036C85.7865 20.9503 85.0177 20.7407 84.2803 20.8954C83.7327 21.01 83.2835 21.3077 82.9487 21.7053C81.3058 19.8506 79.3707 18.329 77.1353 17.8638C76.6704 15.6287 75.1488 13.6939 73.2941 12.0506C73.6918 11.7161 73.9894 11.2669 74.1041 10.7193C74.2582 9.98124 74.0488 9.21252 73.5959 8.63152C73.5506 8.48649 73.4728 8.3517 73.3474 8.24439C73.3047 8.21105 73.2669 8.17245 73.2295 8.13327C73.2243 8.12362 73.2155 8.10842 73.2026 8.08737C73.2006 8.07801 73.195 8.0593 73.1886 8.03795C73.1895 8.02918 73.1897 8.02742 73.1895 8.00666V8.00579C73.2237 7.88824 73.2289 7.87275 73.2052 7.96047C73.2158 7.94321 73.2222 7.93239 73.2298 7.92011C73.25 7.90111 73.2672 7.88503 73.2789 7.87392C73.7064 7.57304 73.938 6.97829 73.6365 6.49934C73.5558 6.37098 73.445 6.2584 73.3169 6.17039C73.1637 6.14174 73.0055 6.1432 72.8582 6.17682C72.3064 6.30226 72.0494 6.88648 72.1389 7.40198C72.1392 7.41719 72.1397 7.44058 72.1409 7.46865C72.1377 7.48239 72.1348 7.49467 72.1301 7.51455C72.1751 7.43561 72.1678 7.45052 72.1088 7.55812L72.1079 7.55842C72.093 7.57274 72.0921 7.57479 72.0862 7.58064C72.0669 7.59175 72.05 7.6011 72.0415 7.60608C72.0181 7.61222 72.0009 7.6166 71.99 7.61982C71.9362 7.6207 71.8822 7.62157 71.8284 7.61514C71.6637 7.60228 71.5134 7.64233 71.3786 7.7128C70.6471 7.80374 69.9558 8.19936 69.543 8.82977C69.2365 9.2982 69.1295 9.82627 69.1746 10.3441C66.6802 10.1929 64.2161 10.4912 62.2998 11.7701C61.8489 9.51106 60.3173 7.55754 58.4471 5.9008C58.8451 5.56629 59.1428 5.11746 59.2574 4.56921C59.4115 3.83119 59.2024 3.06276 58.7492 2.48147C58.7039 2.33644 58.6258 2.20164 58.5007 2.09433C58.458 2.061 58.4203 2.0224 58.3828 1.9838C58.3776 1.97386 58.3685 1.95836 58.3559 1.9376C58.3536 1.92825 58.3483 1.90983 58.3422 1.88819C58.3422 1.87971 58.3431 1.87766 58.3425 1.85719V1.85632C58.3767 1.73848 58.382 1.72269 58.3577 1.81041C58.3685 1.79316 58.3749 1.78234 58.3825 1.77006C58.403 1.75105 58.42 1.73497 58.4311 1.72415C58.8585 1.42298 59.0901 0.828237 58.789 0.349285C58.7085 0.220922 58.5974 0.108347 58.4688 0.020335C58.3159 -0.00832026 58.158 -0.00714973 58.01 0.0267687C57.4583 0.152208 57.2018 0.736424 57.291 1.25163C57.2913 1.26772 57.2922 1.29111 57.2931 1.31889C57.2899 1.33292 57.2866 1.34491 57.2822 1.36479C57.3273 1.28584 57.32 1.30076 57.2609 1.40807L57.2606 1.40836C57.2454 1.42269 57.2445 1.42444 57.239 1.43087C57.2194 1.44169 57.2021 1.45105 57.194 1.45631C57.1703 1.46187 57.153 1.46625 57.1425 1.46947C57.0887 1.47064 57.0349 1.47093 56.9808 1.4645C56.8162 1.45164 56.6659 1.49199 56.5311 1.56245C55.7995 1.6531 55.108 2.04872 54.6954 2.67913C54.389 3.14756 54.282 3.67563 54.3267 4.19347C51.8533 4.04376 49.4092 4.33587 47.4999 5.58764C45.5902 4.33587 43.1461 4.04376 40.673 4.19347C40.7177 3.67563 40.6107 3.14756 40.3043 2.67913C39.8917 2.04872 39.2002 1.65281 38.4686 1.56245C38.3338 1.49169 38.1835 1.45134 38.0189 1.4645C37.9651 1.47093 37.911 1.47064 37.8572 1.46947C37.8467 1.46625 37.8294 1.46187 37.8058 1.45631C37.7979 1.45105 37.7803 1.44199 37.7607 1.43087C37.7552 1.42444 37.7543 1.42269 37.7391 1.40836L37.7388 1.40807C37.6797 1.30076 37.6724 1.28584 37.7175 1.36479C37.7131 1.3452 37.7099 1.33292 37.7066 1.31889C37.7075 1.29111 37.7084 1.26772 37.7087 1.25163C37.7979 0.736424 37.5414 0.152208 36.9897 0.0267687C36.8417 -0.00714973 36.6835 -0.00832026 36.5309 0.020335C36.4023 0.108347 36.2912 0.220922 36.2108 0.349285C35.9096 0.828237 36.1412 1.42298 36.5686 1.72415C36.58 1.73497 36.5967 1.75105 36.6175 1.77006C36.6251 1.78205 36.6315 1.79287 36.6423 1.81041C36.618 1.72269 36.6233 1.73848 36.6575 1.85632C36.6572 1.87679 36.6578 1.87883 36.6578 1.88731C36.6517 1.90895 36.6464 1.92766 36.6441 1.93673C36.6315 1.95749 36.6224 1.97298 36.6172 1.98293C36.5797 2.02152 36.542 2.06012 36.4993 2.09345C36.3742 2.20076 36.2961 2.33556 36.2508 2.48059C35.7976 3.06218 35.5885 3.8306 35.7426 4.56833C35.8572 5.11658 36.1549 5.56512 36.5528 5.89992C34.6821 7.55666 33.1508 9.51019 32.7002 11.7693C30.7839 10.4909 28.3199 10.1926 25.8257 10.3438C25.8708 9.82598 25.7637 9.2979 25.457 8.82948C25.0444 8.19906 24.3532 7.80315 23.6214 7.71251C23.4866 7.64204 23.3363 7.60198 23.1719 7.61485C23.1184 7.62128 23.064 7.6204 23.0105 7.61953C22.9997 7.61631 22.9825 7.61192 22.9588 7.60578C22.9506 7.60081 22.9339 7.59175 22.914 7.58035C22.9079 7.57479 22.9073 7.57274 22.8924 7.55812L22.8921 7.55783C22.833 7.45052 22.8255 7.43561 22.8705 7.51426C22.8661 7.49467 22.8629 7.4821 22.8597 7.46836C22.8608 7.44028 22.8617 7.41689 22.8617 7.40169C22.9509 6.88619 22.6945 6.30197 22.1427 6.17653C21.995 6.14261 21.8372 6.14144 21.6839 6.1701C21.5556 6.25811 21.4448 6.37069 21.3638 6.49905C21.0626 6.978 21.2942 7.57274 21.7217 7.87362C21.7333 7.88473 21.7503 7.90082 21.7702 7.91982C21.7778 7.93181 21.7842 7.94263 21.7951 7.96017C21.7708 7.87245 21.7766 7.88824 21.8108 8.0055V8.00637C21.81 8.02742 21.8108 8.02889 21.8111 8.03766C21.805 8.059 21.7991 8.07801 21.7974 8.08707C21.7845 8.10783 21.7752 8.12333 21.7699 8.13298C21.7331 8.17187 21.695 8.21047 21.6524 8.24409C21.5269 8.35141 21.4489 8.4862 21.4038 8.63123C20.9503 9.21223 20.7413 9.98124 20.8951 10.719C21.0097 11.2666 21.3076 11.7158 21.7053 12.0503C19.8506 13.6933 18.3287 15.6284 17.8638 17.8635C15.6284 18.3287 13.6936 19.8503 12.0507 21.705C11.7156 21.3074 11.267 21.0097 10.7188 20.8951C9.98137 20.7407 9.21238 20.9501 8.63139 21.4033C8.48578 21.4483 8.35097 21.5264 8.24425 21.6518C8.21062 21.6945 8.17233 21.7322 8.13315 21.7697C8.1235 21.7743 8.10829 21.7837 8.08723 21.7966C8.07788 21.7986 8.05918 21.8042 8.03725 21.8106C8.02877 21.8097 8.0273 21.8094 8.00625 21.8097H8.00537C7.88754 21.7755 7.87232 21.7702 7.95945 21.7939C7.9425 21.7831 7.93168 21.777 7.91969 21.7694C7.90039 21.7489 7.88462 21.7319 7.87351 21.7202C7.57234 21.2928 6.97788 21.0612 6.49894 21.3626C6.37029 21.443 6.25771 21.5542 6.16999 21.6822C6.14105 21.8354 6.14221 21.9933 6.17613 22.141C6.30186 22.6928 6.88636 22.9498 7.40127 22.8603C7.41706 22.86 7.44017 22.8591 7.46795 22.8583C7.48198 22.8612 7.49397 22.8644 7.51415 22.8688C7.43491 22.824 7.44982 22.8314 7.55712 22.8904L7.558 22.8913C7.57203 22.9056 7.57408 22.9071 7.58022 22.9126C7.59133 22.9322 7.6007 22.9492 7.60567 22.9574C7.61181 22.9811 7.61561 22.9983 7.61941 23.0091C7.62029 23.0629 7.62058 23.117 7.61414 23.1708C7.60157 23.3349 7.64192 23.4858 7.71239 23.6205C7.80332 24.3521 8.19864 25.0434 8.82963 25.4562C9.29805 25.7627 9.82583 25.8697 10.344 25.8247C10.1928 28.3191 10.491 30.7829 11.77 32.6996C9.51033 33.1505 7.55742 34.6821 5.90071 36.5522C5.56621 36.1543 5.11738 35.8566 4.56913 35.742C3.83113 35.5879 3.06271 35.797 2.48142 36.2502C2.3364 36.2955 2.20161 36.3736 2.0943 36.4987C2.06097 36.5414 2.02237 36.5791 1.98378 36.6166C1.97383 36.6218 1.95833 36.6312 1.93757 36.6435C1.92822 36.6458 1.90979 36.6511 1.88815 36.6572C1.87968 36.6572 1.87762 36.6563 1.85716 36.6569H1.85628C1.73845 36.6227 1.72266 36.6175 1.81038 36.6417C1.79313 36.6309 1.78231 36.6245 1.77003 36.6169C1.75102 36.5964 1.73495 36.5794 1.72413 36.5683C1.42296 36.1408 0.82822 35.9093 0.349276 36.2104C0.220914 36.2908 0.108342 36.4019 0.0203306 36.5306C-0.00832418 36.6835 -0.00714475 36.8414 0.0267732 36.9894C0.152211 37.5411 0.736407 37.7976 1.25161 37.7084C1.26769 37.7081 1.29108 37.7072 1.31885 37.7063C1.33289 37.7096 1.34489 37.7128 1.36477 37.7172C1.28612 37.6721 1.30074 37.6794 1.40805 37.7385L1.40834 37.7388C1.42266 37.754 1.42441 37.7549 1.43084 37.7604C1.44166 37.78 1.45103 37.7973 1.45629 37.8055C1.46184 37.8292 1.46623 37.8464 1.46944 37.8569C1.47061 37.9107 1.47091 37.9645 1.46477 38.0186C1.4519 38.1833 1.49197 38.3335 1.56273 38.4683C1.65337 39.1999 2.04897 39.8915 2.67938 40.304C3.14779 40.6105 3.67587 40.7175 4.1937 40.6727C4.04399 43.1462 4.3361 45.5903 5.58784 47.4997C4.3361 49.4094 4.04399 51.8535 4.1937 54.3267C3.67587 54.2819 3.14779 54.389 2.67938 54.6954C2.04897 55.108 1.65308 55.7998 1.56273 56.5311C1.49197 56.6659 1.4519 56.8162 1.46477 56.9808C1.4712 57.0346 1.4709 57.0884 1.46944 57.1425C1.46623 57.153 1.46184 57.1703 1.45629 57.194C1.45103 57.2018 1.44195 57.2194 1.43084 57.239C1.42441 57.2445 1.42296 57.2454 1.40834 57.2606L1.40805 57.2609C1.30074 57.32 1.28583 57.3273 1.36477 57.2822C1.34518 57.2866 1.33289 57.2899 1.31885 57.2931C1.29108 57.2922 1.26769 57.2916 1.25161 57.291C0.736407 57.2018 0.152211 57.4583 0.0267732 58.01C-0.00714475 58.158 -0.00832418 58.3162 0.0203306 58.4688C0.108342 58.5975 0.220914 58.7086 0.349276 58.789C0.82822 59.0902 1.42296 58.8586 1.72413 58.4311C1.73495 58.4197 1.75102 58.403 1.77003 58.3826C1.78202 58.375 1.79284 58.3685 1.81038 58.3577C1.72266 58.382 1.73845 58.3767 1.85628 58.3425H1.85716C1.87762 58.3428 1.87968 58.3422 1.88815 58.3422C1.90979 58.3483 1.92851 58.3536 1.93757 58.3559C1.95862 58.3685 1.97383 58.3776 1.98378 58.3829C2.02237 58.4203 2.06097 58.458 2.0943 58.5007C2.20161 58.6258 2.3364 58.7039 2.48142 58.7492C3.063 59.2024 3.83142 59.4115 4.56913 59.2574C5.11708 59.1428 5.56592 58.8451 5.90071 58.4472C7.55742 60.3179 9.51063 61.8493 11.77 62.2998C10.4913 64.2165 10.1928 66.6803 10.344 69.1748C9.82553 69.1297 9.29805 69.2367 8.82963 69.5432C8.19864 69.956 7.80332 70.6473 7.71239 71.3789C7.64192 71.514 7.60186 71.6643 7.61414 71.8286C7.62058 71.8824 7.62029 71.9362 7.61941 71.9903C7.6159 72.0011 7.61181 72.0184 7.60567 72.042C7.60099 72.0499 7.59162 72.0669 7.58022 72.0868C7.57408 72.0929 7.57203 72.0935 7.558 72.1084L7.55712 72.1087C7.44982 72.1678 7.43491 72.1751 7.51415 72.1303C7.49397 72.1347 7.48198 72.1379 7.46795 72.1412C7.44017 72.14 7.41677 72.1391 7.40127 72.1391C6.88607 72.0499 6.30186 72.3064 6.17613 72.8581C6.14251 73.0058 6.14105 73.1637 6.16999 73.3169C6.25771 73.4453 6.37029 73.5561 6.49894 73.6371C6.97788 73.9383 7.57234 73.7067 7.87351 73.2792C7.88462 73.2675 7.90039 73.2505 7.91969 73.2301C7.93168 73.2225 7.9425 73.2163 7.95945 73.2055C7.87232 73.2292 7.88754 73.2239 8.00537 73.1897H8.00625C8.0273 73.19 8.02877 73.1897 8.03725 73.1894C8.05888 73.1956 8.07788 73.2011 8.08723 73.2032C8.10829 73.216 8.1235 73.2254 8.13315 73.2301C8.17204 73.2675 8.21033 73.3052 8.24425 73.3479C8.35126 73.4733 8.48607 73.5514 8.63139 73.5964C9.21238 74.0497 9.98137 74.259 10.7188 74.1052C11.2667 73.9906 11.7156 73.6926 12.0507 73.295C13.6936 75.1497 15.6284 76.6713 17.8638 77.1365C18.3287 79.3719 19.8506 81.3067 21.7053 82.9497C21.3076 83.2842 21.0097 83.7334 20.8951 84.281C20.741 85.0191 20.95 85.7878 21.4038 86.3688C21.4489 86.5141 21.5269 86.6492 21.6524 86.7559C21.695 86.7898 21.7328 86.8278 21.7699 86.867C21.7752 86.8767 21.7842 86.8919 21.7974 86.9129C21.7989 86.9223 21.805 86.941 21.8111 86.9623C21.8108 86.9711 21.81 86.9729 21.8108 86.9936V86.9945C21.7766 87.1121 21.7711 87.1275 21.7951 87.0404C21.7842 87.0574 21.7778 87.0682 21.7702 87.0802C21.75 87.0995 21.7333 87.1153 21.7217 87.1264C21.2942 87.4276 21.0626 88.022 21.3638 88.5009C21.4445 88.6296 21.5556 88.7422 21.6839 88.8299C21.8372 88.8586 21.9953 88.8577 22.1427 88.8235C22.6945 88.698 22.9509 88.1138 22.8617 87.5986C22.8617 87.5828 22.8608 87.5597 22.8597 87.5314C22.8629 87.5176 22.8661 87.5053 22.8705 87.4855C22.8255 87.5644 22.833 87.5498 22.8921 87.4422L22.8924 87.4419C22.9073 87.4278 22.9082 87.4258 22.914 87.4196C22.9336 87.4082 22.9506 87.3992 22.9588 87.3942C22.9825 87.3881 22.9997 87.3837 23.0105 87.3805C23.064 87.3796 23.1184 87.379 23.1719 87.3857C23.3363 87.3983 23.4869 87.358 23.6214 87.2875C24.3532 87.1966 25.0444 86.8012 25.457 86.1705C25.7637 85.7021 25.8708 85.174 25.8257 84.6562C28.3196 84.8074 30.7839 84.5091 32.7005 83.2301C33.1514 85.4898 34.6827 87.4428 36.5531 89.0995C36.1549 89.434 35.8575 89.8828 35.7429 90.4308C35.5888 91.1688 35.7982 91.9372 36.2511 92.5185C36.2964 92.6636 36.3745 92.7984 36.4996 92.9057C36.5423 92.939 36.58 92.9776 36.6175 93.0162C36.6227 93.0261 36.6318 93.0416 36.6444 93.0624C36.6467 93.0718 36.652 93.0902 36.6581 93.1118C36.6581 93.1203 36.6572 93.1223 36.6578 93.1428V93.1437C36.6236 93.2615 36.6184 93.2773 36.6426 93.1896C36.6318 93.2068 36.6254 93.2177 36.6178 93.2299C36.5973 93.2489 36.5803 93.265 36.5689 93.2758C36.1414 93.577 35.9099 94.1718 36.211 94.6507C36.2914 94.7791 36.4025 94.8916 36.5312 94.9797C36.6841 95.0083 36.842 95.0071 36.99 94.9732C37.5417 94.8478 37.7982 94.2636 37.709 93.7484C37.7087 93.7323 37.7078 93.7089 37.7069 93.6811C37.7101 93.6671 37.7134 93.6551 37.7178 93.6352C37.6727 93.7142 37.68 93.6992 37.7391 93.5919L37.7394 93.5916C37.7546 93.5773 37.7555 93.5756 37.761 93.5691C37.7806 93.5583 37.7982 93.549 37.8061 93.5437C37.8297 93.5381 37.847 93.5338 37.8575 93.5305C37.9113 93.5294 37.9654 93.5291 38.0192 93.5355C38.1835 93.5484 38.3341 93.508 38.4689 93.4372C39.2005 93.3469 39.892 92.951 40.3046 92.3206C40.611 91.8521 40.718 91.3241 40.6733 90.8062C43.1464 90.9559 45.5905 90.6638 47.5001 89.4121C49.4095 90.6638 51.8536 90.9559 54.327 90.8062C54.2823 91.3241 54.3893 91.8521 54.6957 92.3206C55.1083 92.951 55.8001 93.3469 56.5314 93.4372C56.6662 93.508 56.8165 93.5484 56.9811 93.5355C57.0349 93.5291 57.089 93.5294 57.1428 93.5305C57.1533 93.5338 57.1706 93.5381 57.1942 93.5437C57.2024 93.549 57.2197 93.558 57.2393 93.5691C57.2448 93.5756 57.2457 93.577 57.2609 93.5916L57.2612 93.5919C57.3203 93.6992 57.3276 93.7142 57.2825 93.6352C57.2869 93.6548 57.2901 93.6671 57.2934 93.6811C57.2925 93.7089 57.2919 93.7323 57.2913 93.7484C57.2021 94.2636 57.4586 94.8478 58.0103 94.9732C58.1583 95.0071 58.3164 95.0083 58.4691 94.9797C58.5977 94.8916 58.7088 94.7791 58.7893 94.6507C59.0904 94.1718 58.8589 93.577 58.4314 93.2758C58.4203 93.265 58.4033 93.2489 58.3828 93.2299C58.3752 93.2179 58.3688 93.2071 58.358 93.1896C58.3819 93.2773 58.377 93.2615 58.3428 93.1437C58.3431 93.1232 58.3425 93.1212 58.3425 93.1127C58.3486 93.091 58.3539 93.0723 58.3562 93.0633C58.3688 93.0422 58.3778 93.027 58.3831 93.0171C58.4205 92.9785 58.4583 92.9399 58.501 92.9065C58.6261 92.7992 58.7042 92.6644 58.7495 92.5194C59.2027 91.9378 59.4118 91.1694 59.2577 90.4317C59.1431 89.8837 58.8454 89.4349 58.4474 89.1004C60.3176 87.4436 61.8495 85.4904 62.3 83.231C64.2161 84.5097 66.6804 84.8082 69.1749 84.6571C69.1298 85.1749 69.2368 85.703 69.5433 86.1714C69.9561 86.8024 70.6477 87.1977 71.3789 87.2884C71.5137 87.3588 71.664 87.3989 71.8286 87.3866C71.8824 87.3799 71.9362 87.3805 71.9903 87.3814C72.0011 87.3846 72.0184 87.389 72.0418 87.3951C72.0503 87.3998 72.0672 87.4091 72.0865 87.4205C72.0927 87.4267 72.0933 87.4284 72.1082 87.4427L72.109 87.4431C72.1681 87.5509 72.1754 87.5653 72.1304 87.4863C72.1354 87.5059 72.138 87.5185 72.1412 87.5322C72.14 87.5603 72.1398 87.5837 72.1392 87.5995C72.05 88.1147 72.3067 88.6989 72.8585 88.8243C73.0061 88.8586 73.164 88.8594 73.3172 88.8308C73.4456 88.7431 73.5561 88.6305 73.6368 88.5018C73.9383 88.0229 73.7067 87.4284 73.2792 87.1273C73.2675 87.1161 73.2503 87.1004 73.2301 87.0811C73.2225 87.0691 73.2161 87.0583 73.2055 87.0413C73.2292 87.1284 73.224 87.1129 73.1898 86.9954V86.9945C73.19 86.9735 73.1897 86.972 73.1889 86.9632C73.1953 86.9419 73.2009 86.9232 73.2029 86.9138C73.2158 86.8928 73.2245 86.8775 73.2298 86.8679C73.2672 86.829 73.305 86.7907 73.3476 86.7568C73.4731 86.6498 73.5508 86.5147 73.5962 86.3697C74.0494 85.7887 74.2585 85.0196 74.1044 84.2819C73.9898 83.7342 73.6921 83.2851 73.2944 82.9506C75.1491 81.3076 76.6707 79.3728 77.1356 77.1374C79.371 76.6722 81.3061 75.1505 82.949 73.2958C83.2835 73.6935 83.7327 73.9915 84.2806 74.1061C85.018 74.2602 85.787 74.0505 86.3683 73.5973C86.5136 73.5523 86.6481 73.4742 86.7554 73.3488C86.7888 73.3061 86.8274 73.2684 86.8666 73.2309C86.8762 73.226 86.8914 73.2169 86.9119 73.204C86.9215 73.202 86.9399 73.1964 86.9616 73.1903C86.9701 73.1906 86.9721 73.1912 86.9929 73.1906C87.1107 73.2248 87.1265 73.2301 87.0391 73.2064C87.0563 73.2172 87.0668 73.2233 87.0794 73.2309C87.0984 73.2514 87.1145 73.2684 87.1253 73.2801C87.4265 73.7075 88.0212 73.9391 88.5002 73.6379C88.6285 73.5573 88.7411 73.4461 88.8291 73.3178C88.8578 73.1646 88.8563 73.0064 88.8227 72.859C88.6972 72.3072 88.113 72.0508 87.5975 72.14C87.5818 72.14 87.5587 72.1409 87.5309 72.142C87.5169 72.1388 87.5048 72.1356 87.485 72.1312C87.5639 72.176 87.549 72.1686 87.4417 72.1096L87.4414 72.1093C87.4271 72.0944 87.425 72.0935 87.4189 72.0876C87.4081 72.0681 87.3987 72.0511 87.394 72.0429C87.3879 72.0192 87.3835 72.002 87.3803 71.9912C87.3791 71.9374 87.3788 71.8833 87.3853 71.8295C87.3978 71.6654 87.3578 71.5148 87.287 71.3797C87.1967 70.6482 86.8008 69.9569 86.1704 69.5441C85.7019 69.2376 85.1739 69.1306 84.656 69.1756C84.8069 66.6812 84.509 64.2174 83.23 62.3007C85.4891 61.8498 87.4426 60.3185 89.0996 58.4481C89.4341 58.8463 89.8829 59.1437 90.4309 59.2583C91.1689 59.4124 91.9373 59.2033 92.5186 58.7501C92.6636 58.7048 92.7984 58.6267 92.9057 58.5016C92.939 58.4589 92.9776 58.4212 93.0162 58.3837C93.0262 58.3785 93.0417 58.3691 93.0624 58.3568C93.0718 58.3545 93.0902 58.3492 93.1118 58.3431C93.1203 58.3431 93.1224 58.344 93.1428 58.3434H93.1437C93.2615 58.3776 93.2773 58.3828 93.1896 58.3586C93.2069 58.3694 93.2177 58.3758 93.23 58.3834C93.249 58.4039 93.2651 58.4209 93.2759 58.432C93.577 58.8595 94.1718 59.091 94.6507 58.7899C94.7791 58.7095 94.8916 58.5983 94.9797 58.4697C95.0083 58.3168 95.0071 58.1589 94.9732 58.0109C94.8478 57.4592 94.2636 57.2027 93.7484 57.2919C93.7323 57.2922 93.7089 57.2931 93.6811 57.294C93.6671 57.2907 93.6551 57.2875 93.6352 57.2831C93.7139 57.3282 93.6993 57.3209 93.592 57.2618L93.5917 57.2615C93.5773 57.2463 93.5756 57.2454 93.5692 57.2399C93.5583 57.2203 93.549 57.203 93.5437 57.1948C93.5381 57.1711 93.5338 57.1539 93.5305 57.1434C93.5294 57.0896 93.5291 57.0358 93.5355 56.9817C93.5484 56.817 93.508 56.6668 93.4373 56.532C93.3469 55.8004 92.951 55.1088 92.3206 54.6963C91.8522 54.3898 91.3241 54.2828 90.8063 54.3275C90.9557 51.8538 90.6633 49.4097 89.4116 47.5ZM91.392 38.0166C91.439 38.202 91.4379 38.3909 91.287 38.5365C91.1294 38.6879 90.8253 38.6917 90.663 38.5543C90.6344 38.53 90.6028 38.5107 90.5721 38.4891C90.566 38.4473 90.5607 38.4055 90.5546 38.3637C90.5297 38.3297 90.5034 38.2961 90.4785 38.2622C90.4847 38.2257 90.4934 38.1894 90.4967 38.1517C90.5139 37.9403 90.7314 37.7274 90.9501 37.7233C91.1598 37.7195 91.2943 37.8525 91.392 38.0166ZM71.8307 9.75785C71.9947 9.85551 72.1278 9.99002 72.124 10.1997C72.1199 10.4181 71.9076 10.6356 71.6953 10.6532C71.6585 10.6564 71.6222 10.6652 71.5851 10.6713C71.5512 10.6459 71.5178 10.6201 71.4839 10.5953C71.4424 10.5889 71.3997 10.5836 71.3585 10.5772C71.3371 10.547 71.3175 10.5152 71.2933 10.4862C71.1558 10.3245 71.1594 10.0201 71.3108 9.86253C71.4561 9.71165 71.6453 9.71077 71.8307 9.75785ZM38.0169 3.6075C38.2022 3.56043 38.3911 3.5616 38.5367 3.71247C38.6882 3.87008 38.692 4.17417 38.5543 4.33646C38.5303 4.36511 38.511 4.39669 38.4891 4.42739C38.4473 4.43353 38.4055 4.4388 38.3637 4.44523C38.3297 4.47008 38.2961 4.4964 38.2625 4.52125C38.2259 4.51511 38.1897 4.50634 38.152 4.50312C37.9406 4.48587 37.7277 4.26833 37.7236 4.04961C37.7198 3.83967 37.8528 3.70546 38.0169 3.6075ZM9.75828 23.1691C9.85653 23.0045 9.99073 22.872 10.2001 22.8755C10.4188 22.8799 10.6363 23.0922 10.6542 23.3045C10.6574 23.3416 10.6659 23.3776 10.6723 23.4147C10.6469 23.4486 10.6211 23.482 10.596 23.5162C10.5899 23.5577 10.5843 23.5998 10.5785 23.6416C10.5483 23.6629 10.5165 23.6822 10.4875 23.7068C10.3255 23.8442 10.0214 23.8407 9.86383 23.689C9.71237 23.5436 9.7115 23.3542 9.75828 23.1691ZM3.60862 56.9834C3.56155 56.798 3.5627 56.6091 3.71358 56.4635C3.87118 56.3121 4.17528 56.3083 4.33756 56.4457C4.36621 56.47 4.39778 56.489 4.42849 56.5109C4.43463 56.5527 4.4396 56.5945 4.44603 56.6363C4.47088 56.67 4.4972 56.7039 4.52206 56.7375C4.51591 56.7741 4.50714 56.8103 4.50392 56.848C4.48667 57.0594 4.26914 57.2723 4.05043 57.2764C3.84049 57.2805 3.70628 57.1475 3.60862 56.9834ZM23.1699 85.2422C23.0053 85.1445 22.8728 85.0103 22.8763 84.8006C22.8807 84.5819 23.093 84.3644 23.305 84.3465C23.3424 84.3433 23.3787 84.3345 23.4155 84.3284C23.4491 84.3538 23.4828 84.3796 23.5164 84.4044C23.5582 84.4109 23.6003 84.4161 23.6418 84.4226C23.6635 84.4527 23.6828 84.4845 23.7073 84.5135C23.8444 84.6755 23.8412 84.9796 23.6892 85.1372C23.5439 85.2886 23.3547 85.2892 23.1699 85.2422ZM56.9834 91.3925C56.798 91.4396 56.6091 91.4384 56.4635 91.2875C56.3121 91.1299 56.3083 90.8258 56.446 90.6636C56.4703 90.6349 56.4893 90.6033 56.5112 90.5726C56.553 90.5665 56.5948 90.5615 56.6366 90.5551C56.6703 90.5302 56.7042 90.5039 56.7378 90.479C56.7743 90.4852 56.8106 90.4939 56.8483 90.4972C57.0597 90.5144 57.2726 90.732 57.2767 90.9507C57.2808 91.1603 57.1474 91.2945 56.9834 91.3925ZM85.242 71.8309C85.1443 71.9955 85.0095 72.128 84.8002 72.1245C84.5818 72.1201 84.3642 71.9078 84.3467 71.6958C84.3435 71.6584 84.3347 71.6222 84.3286 71.5853C84.3534 71.5517 84.3797 71.5181 84.4046 71.4838C84.411 71.4423 84.4163 71.4002 84.4227 71.3587C84.4528 71.3371 84.4847 71.3178 84.5136 71.2932C84.6753 71.1558 84.9797 71.1593 85.1373 71.3107C85.2882 71.4569 85.2888 71.6458 85.242 71.8309ZM90.9501 57.2767C90.7314 57.2726 90.5139 57.06 90.4967 56.8483C90.4934 56.8106 90.4847 56.7744 90.4785 56.7378C90.5034 56.7042 90.5297 56.6703 90.5546 56.6366C90.561 56.5948 90.5662 56.553 90.5721 56.5112C90.6025 56.4895 90.6344 56.4703 90.663 56.446C90.8256 56.3086 91.1294 56.3121 91.287 56.4638C91.4379 56.6094 91.439 56.7983 91.392 56.9837C91.2943 57.1475 91.1598 57.2805 90.9501 57.2767ZM85.137 23.6893C84.9794 23.841 84.6751 23.8445 84.5134 23.7071C84.4844 23.6825 84.4525 23.6632 84.4224 23.6419C84.416 23.6001 84.4107 23.558 84.4043 23.5165C84.3794 23.4822 84.3531 23.4489 84.3283 23.415C84.3344 23.3779 84.3432 23.3419 84.3464 23.3048C84.3642 23.0925 84.5818 22.8802 84.7999 22.8758C85.0093 22.8723 85.144 23.0048 85.2417 23.1694C85.2888 23.3542 85.2882 23.5436 85.137 23.6893ZM57.2767 4.04961C57.2726 4.26833 57.06 4.48587 56.8483 4.50312C56.8106 4.50634 56.7743 4.51511 56.7378 4.52125C56.7042 4.4964 56.6703 4.47008 56.6366 4.44523C56.5948 4.4388 56.553 4.43353 56.5112 4.42739C56.4896 4.39698 56.4703 4.36511 56.446 4.33646C56.3086 4.17388 56.3121 3.87008 56.4635 3.71247C56.6091 3.5616 56.798 3.56043 56.9834 3.6075C57.1474 3.70546 57.2808 3.83967 57.2767 4.04961ZM23.6892 9.86282C23.8412 10.0204 23.8444 10.3248 23.7073 10.4865C23.6828 10.5155 23.6635 10.5473 23.6418 10.5774C23.6003 10.5839 23.5582 10.5891 23.5164 10.5956C23.4828 10.6204 23.4491 10.6462 23.4155 10.6716C23.3784 10.6655 23.3424 10.6567 23.305 10.6535C23.093 10.6359 22.8807 10.4184 22.8763 10.2C22.8728 9.99002 23.0053 9.85581 23.1699 9.75814C23.3547 9.71077 23.5439 9.71165 23.6892 9.86282ZM4.05043 37.7233C4.26914 37.7274 4.48667 37.94 4.50392 38.1517C4.50714 38.1894 4.51591 38.2257 4.52206 38.2622C4.4972 38.2961 4.47088 38.3297 4.44603 38.3637C4.4396 38.4055 4.43433 38.4473 4.42849 38.4891C4.39808 38.5107 4.36621 38.53 4.33756 38.5543C4.17499 38.6917 3.87118 38.6882 3.71358 38.5365C3.5627 38.3909 3.56155 38.202 3.60862 38.0166C3.70628 37.8525 3.84049 37.7195 4.05043 37.7233ZM9.86354 71.3107C10.0211 71.1593 10.3252 71.1555 10.4872 71.2932C10.5162 71.3178 10.548 71.3371 10.5782 71.3587C10.5843 71.4002 10.5899 71.4423 10.5957 71.4838C10.6211 71.5181 10.6469 71.5514 10.672 71.5853C10.6656 71.6222 10.6571 71.6584 10.6539 71.6958C10.6363 71.9078 10.4185 72.1201 10.1998 72.1245C9.99016 72.128 9.85593 71.9955 9.75798 71.8309C9.71149 71.6458 9.71237 71.4569 9.86354 71.3107ZM37.7239 90.9504C37.728 90.7317 37.9406 90.5141 38.1522 90.4969C38.19 90.4937 38.2262 90.4849 38.2628 90.4788C38.2964 90.5036 38.3303 90.5299 38.3639 90.5548C38.4058 90.5612 38.4476 90.5665 38.4894 90.5723C38.511 90.603 38.5303 90.6346 38.5546 90.6633C38.692 90.8258 38.6885 91.1296 38.537 91.2872C38.3914 91.4381 38.2025 91.4393 38.0172 91.3922C37.8528 91.2945 37.7198 91.1603 37.7239 90.9504ZM71.3108 85.1372C71.1594 84.9796 71.1556 84.6755 71.2933 84.5135C71.3175 84.4845 71.3371 84.4527 71.3585 84.4226C71.4 84.4161 71.4424 84.4109 71.4839 84.4044C71.5181 84.3796 71.5515 84.3538 71.5851 84.3284C71.6219 84.3345 71.6582 84.3433 71.6953 84.3465C71.9076 84.3644 72.1199 84.5819 72.124 84.8006C72.1281 85.0103 71.9947 85.1445 71.8307 85.2422C71.6453 85.2892 71.4561 85.2886 71.3108 85.1372ZM86.4566 47.5C87.5209 45.0816 87.8923 42.2321 87.9513 39.4417C85.8385 37.4166 83.4367 35.5879 80.8353 34.6666C84.0864 33.9391 86.7034 36.5312 88.6332 39.1596C89.0964 42.1845 89.1092 45.6149 86.7838 47.5C89.1092 49.3857 89.0964 52.8158 88.6332 55.8407C86.7034 58.4691 84.0864 61.0612 80.8353 60.3337C83.4367 59.4124 85.8385 57.5834 87.9513 55.5586C87.8923 52.7679 87.5212 49.9184 86.4566 47.5ZM75.0465 75.047C77.509 74.0894 79.7868 72.3371 81.8014 70.4058C81.7394 67.48 81.3341 64.4882 80.1461 61.9972C82.9593 63.7817 82.9771 67.4654 82.4833 70.6885C80.6722 73.1552 78.2558 75.5897 75.278 75.2783C75.5891 78.2561 73.1544 80.6725 70.6883 82.4837C67.4652 82.9775 63.7819 82.9603 61.9971 80.1465C64.4877 81.3348 67.4795 81.7398 70.4055 81.8018C72.3368 79.7868 74.0889 77.5093 75.0465 75.047ZM47.5001 86.4571C49.9183 87.5214 52.7679 87.8928 55.5583 87.9518C57.5834 85.8389 59.4124 83.4372 60.3334 80.8357C61.0609 84.0869 58.4688 86.7039 55.8404 88.6337C52.8156 89.0975 49.3852 89.1103 47.5001 86.7843C45.6145 89.11 42.1844 89.0972 39.1599 88.6337C36.5315 86.7039 33.9394 84.0869 34.6669 80.8357C35.5882 83.4372 37.4172 85.8389 39.442 87.9518C42.2323 87.8928 45.0817 87.5214 47.5001 86.4571ZM19.9535 75.047C20.9108 77.5093 22.6635 79.7868 24.5947 81.8015C27.5204 81.7395 30.5119 81.3345 33.0032 80.1462C31.2187 82.96 27.5351 82.9772 24.312 82.4834C21.8453 80.6722 19.4106 78.2558 19.7222 75.278C16.7445 75.5891 14.3281 73.1549 12.517 70.6882C12.0229 67.4651 12.0404 63.7817 14.8539 61.9969C13.6662 64.4876 13.2606 67.4794 13.1986 70.4055C15.2138 72.3371 17.491 74.0897 19.9535 75.047ZM8.54367 47.5C7.47935 49.9184 7.10801 52.7679 7.04895 55.5583C9.1618 57.5834 11.5635 59.4121 14.165 60.3335C10.9138 61.0609 8.29688 58.4688 6.36707 55.8404C5.90333 52.8155 5.89047 49.3854 8.21589 47.4997C5.89047 45.6146 5.90333 42.1839 6.36707 39.1593C8.29688 36.5309 10.9138 33.9388 14.165 34.6663C11.5635 35.5876 9.1618 37.4166 7.04895 39.4414C7.1083 42.2321 7.47935 45.0816 8.54367 47.5ZM19.9535 19.9533C17.491 20.9103 15.2138 22.6629 13.1986 24.5942C13.2606 27.52 13.6659 30.5118 14.8539 33.0028C12.0407 31.2183 12.0229 27.5346 12.517 24.3115C14.3281 21.8448 16.7445 19.4103 19.7222 19.7217C19.4106 16.7439 21.8453 14.3275 24.312 12.5164C27.5351 12.0225 31.2184 12.0403 33.0032 14.8535C30.5119 13.6652 27.5207 13.2602 24.5947 13.1982C22.6635 15.2132 20.9111 17.4907 19.9535 19.9533ZM47.5001 8.54293C45.0817 7.47859 42.2323 7.10724 39.442 7.04818C37.4169 9.16106 35.5882 11.5628 34.6669 14.1643C33.9394 10.9131 36.5315 8.29614 39.1599 6.3663C42.1847 5.90314 45.6148 5.88969 47.5001 8.21573C49.3852 5.88998 52.8159 5.90314 55.8404 6.3663C58.4688 8.29614 61.0609 10.9131 60.3334 14.1643C59.4121 11.5628 57.5834 9.16106 55.5583 7.04818C52.7679 7.10724 49.9183 7.47859 47.5001 8.54293ZM75.0465 19.9533C74.0891 17.4907 72.3371 15.2129 70.4055 13.1982C67.4798 13.2602 64.488 13.6652 61.9971 14.8535C63.7816 12.0403 67.4652 12.0225 70.6883 12.5164C73.1547 14.3275 75.5894 16.7439 75.278 19.7217C78.2558 19.4106 80.6722 21.8448 82.4833 24.3115C82.9771 27.5346 82.9593 31.218 80.1461 33.0028C81.3341 30.5121 81.7394 27.5203 81.8014 24.5942C79.7868 22.6629 77.509 20.9103 75.0465 19.9533Z" fill="url(#paint0_radial_2031_76)"/>
<path d="M92.0886 47.5C92.4574 46.898 92.1811 45.8959 91.258 45.8959C90.3363 45.8959 90.0585 46.898 90.4264 47.5C90.0585 48.1021 90.3363 49.1041 91.258 49.1041C92.1813 49.1041 92.4574 48.1021 92.0886 47.5Z" fill="url(#paint1_radial_2031_76)"/>
<path d="M79.0292 79.0298C79.7158 78.8646 80.2286 77.9605 79.576 77.3079C78.9243 76.6561 78.019 77.1684 77.8538 77.8541C77.1678 78.0199 76.6558 78.9245 77.3073 79.5763C77.9602 80.2292 78.8643 79.7158 79.0292 79.0298Z" fill="url(#paint2_radial_2031_76)"/>
<path d="M47.5002 92.0896C48.1022 92.458 49.1043 92.1817 49.1043 91.2583C49.1043 90.3366 48.1022 90.0588 47.5002 90.427C46.8981 90.0586 45.8961 90.3366 45.8961 91.2583C45.8961 92.1817 46.8981 92.458 47.5002 92.0896Z" fill="url(#paint3_radial_2031_76)"/>
<path d="M15.971 79.0298C16.1362 79.7158 17.0402 80.2292 17.6929 79.5763C18.3446 78.9245 17.8324 78.0196 17.1464 77.8541C16.9812 77.1684 16.0762 76.6561 15.4245 77.3079C14.7713 77.9605 15.2847 78.8646 15.971 79.0298Z" fill="url(#paint4_radial_2031_76)"/>
<path d="M2.91128 47.5C2.54286 48.1021 2.81916 49.1041 3.74255 49.1041C4.66418 49.1041 4.94196 48.1021 4.57383 47.5C4.94225 46.898 4.66418 45.8959 3.74255 45.8959C2.81916 45.8959 2.54286 46.898 2.91128 47.5Z" fill="url(#paint5_radial_2031_76)"/>
<path d="M15.971 15.9708C15.2851 16.1357 14.7716 17.0398 15.4246 17.6921C16.0763 18.3439 16.9813 17.8322 17.1465 17.1459C17.8324 16.9807 18.3447 16.0754 17.693 15.4237C17.04 14.771 16.1363 15.2842 15.971 15.9708Z" fill="url(#paint6_radial_2031_76)"/>
<path d="M47.5002 2.91069C46.8981 2.54198 45.8961 2.81829 45.8961 3.7414C45.8961 4.66305 46.8981 4.94083 47.5002 4.57299C48.1022 4.94083 49.1043 4.66305 49.1043 3.7414C49.1043 2.81829 48.1022 2.54198 47.5002 2.91069Z" fill="url(#paint7_radial_2031_76)"/>
<path d="M79.0292 15.9708C78.8643 15.2842 77.9602 14.7713 77.3073 15.424C76.6558 16.0757 77.1678 16.981 77.8538 17.1462C78.019 17.8322 78.9243 18.3442 79.576 17.6924C80.2286 17.0395 79.7155 16.1357 79.0292 15.9708Z" fill="url(#paint8_radial_2031_76)"/>
<path d="M85.9786 31.5616C86.0812 31.8753 86.0309 32.235 85.726 32.5399C85.1838 33.0817 84.4669 32.8189 84.1456 32.3209C84.0201 31.7414 84.3415 31.0487 85.1078 31.0481C85.5394 31.0484 85.8295 31.2674 85.9786 31.5616Z" fill="url(#paint9_radial_2031_76)"/>
<path d="M85.9786 63.4384C85.8295 63.7332 85.5394 63.9519 85.1081 63.9519C84.3418 63.9516 84.0204 63.2589 84.1458 62.6791C84.4672 62.1808 85.1841 61.9183 85.7262 62.4601C86.0309 62.7653 86.0812 63.1247 85.9786 63.4384Z" fill="url(#paint10_radial_2031_76)"/>
<path d="M63.4382 85.979C63.1244 86.0819 62.7648 86.0313 62.4598 85.7263C61.9177 85.1842 62.1809 84.4673 62.6791 84.1459C63.2586 84.0208 63.9513 84.3421 63.9519 85.1082C63.9513 85.5398 63.7326 85.8298 63.4382 85.979Z" fill="url(#paint11_radial_2031_76)"/>
<path d="M31.5616 85.979C31.2672 85.8298 31.0484 85.5398 31.0484 85.1082C31.0484 84.3421 31.7411 84.0208 32.3213 84.1459C32.8195 84.4673 33.0821 85.1842 32.5405 85.7263C32.2353 86.0313 31.8753 86.0819 31.5616 85.979Z" fill="url(#paint12_radial_2031_76)"/>
<path d="M9.02189 63.4384C8.91896 63.1247 8.96955 62.7653 9.27452 62.46C9.81662 61.9185 10.5336 62.1811 10.8549 62.6791C10.9801 63.2589 10.6587 63.9513 9.89235 63.9519C9.46077 63.9519 9.17042 63.7332 9.02189 63.4384Z" fill="url(#paint13_radial_2031_76)"/>
<path d="M9.02203 31.5616C9.17086 31.2671 9.46121 31.0484 9.8922 31.0481C10.6586 31.0484 10.9799 31.7414 10.8548 32.3209C10.5334 32.8192 9.81646 33.0817 9.27436 32.5399C8.96968 32.2352 8.91881 31.8753 9.02203 31.5616Z" fill="url(#paint14_radial_2031_76)"/>
<path d="M31.5616 9.02099C31.8753 8.91807 32.2353 8.96865 32.5402 9.27363C33.0818 9.81574 32.8192 10.5327 32.3209 10.854C31.7411 10.9792 31.0482 10.6581 31.0482 9.89176C31.0485 9.46018 31.2672 9.17012 31.5616 9.02099Z" fill="url(#paint15_radial_2031_76)"/>
<path d="M63.4383 9.02101C63.7328 9.17013 63.9515 9.46019 63.9518 9.89177C63.9515 10.6582 63.2585 10.9792 62.679 10.8541C62.1808 10.5327 61.9179 9.81575 62.4597 9.27364C62.765 8.96896 63.1246 8.91808 63.4383 9.02101Z" fill="url(#paint16_radial_2031_76)"/>
<path d="M18.083 55.0066H42.8737C43.6143 56.8266 45.226 58.1245 47.0915 58.3635C49.3881 58.6569 51.7053 57.3003 52.6864 55.0066H76.4447" stroke="white" stroke-width="3.22807" stroke-miterlimit="10"/>
<path d="M53.1182 52.1116C55.0995 50.8827 57.8287 50.3356 60.0902 50.648C62.4059 51.0117 64.7362 51.2068 67.0622 51.4957C68.4202 51.6658 70.3722 51.9063 71.7112 52.1116V52.2466C69.9704 52.2598 61.6359 52.3155 60.0902 52.3375C57.8375 52.3478 55.3561 52.3404 53.1182 52.2466V52.1116Z" fill="white"/>
<path d="M27.1221 52.223C29.2222 51.7111 31.4748 51.2257 33.5999 50.8371C34.5223 50.7271 35.4506 50.7432 36.376 50.7183C37.9555 50.7241 39.5467 51.0732 41.003 51.7214C41.311 51.868 41.6205 52.0147 41.9284 52.223V52.3945L41.003 52.4253C39.2886 52.4752 36.2749 52.4825 34.5253 52.4796L27.1221 52.3945V52.223Z" fill="white"/>
<path d="M47.8186 54.3981C47.5942 50.9282 49.2837 47.8998 52.5395 46.5432C54.0178 45.9038 55.606 45.6457 57.1767 45.4418C59.9309 45.0737 62.6778 45.6427 65.4232 45.6442C67.7491 45.7029 70.0766 45.6442 72.3952 45.4535L72.338 50.2286C68.6877 49.8605 65.0448 49.3282 61.4664 48.5274C59.8547 48.1476 58.4805 47.8895 56.9084 47.9364C55.1543 47.9511 53.283 48.1021 51.7725 48.9865C50.3983 49.7711 49.3394 51.154 48.9537 52.7233C48.8115 53.26 48.7279 53.8188 48.7132 54.3819L47.8186 54.3995V54.3981Z" fill="white"/>
<path d="M47.012 54.3804C46.9152 50.8035 44.4353 48.3881 40.9258 48.0522C39.8391 47.9334 38.6717 47.9012 37.5674 47.9613C36.4836 48.0288 35.435 48.2561 34.2574 48.5274C31.8772 49.0553 29.4618 49.4821 27.0405 49.7989C25.8262 49.9675 24.6089 50.0995 23.3873 50.2271L23.3301 45.452C26.228 45.6911 29.1435 45.7219 32.0473 45.5781C33.2601 45.5165 34.4011 45.3934 35.6404 45.3303C36.752 45.2716 37.9033 45.3347 39.009 45.5019C42.4642 45.9169 45.9459 47.1503 47.3317 50.6451C47.8113 51.8418 47.9844 53.1265 47.9066 54.398L47.012 54.3804Z" fill="white"/>
<path d="M67.8437 41.2767C62.8324 40.6138 57.3988 40.8426 52.9757 43.5103C50.1306 45.2482 48.5526 47.4524 48.1698 50.802C48.029 51.9063 48.0114 53.04 48.0481 54.156C48.0481 54.2337 48.0525 54.3041 48.0451 54.3965L47.8604 54.3833C47.787 53.7908 47.6902 53.1896 47.6506 52.5897C47.2928 47.9217 48.7594 44.8038 52.7411 42.2784C57.2625 39.4567 62.8838 39.0021 68.0622 39.6679L67.8437 41.2767Z" fill="white"/>
<path d="M49.0266 34.4395C49.0266 34.4395 49.0266 34.4468 49.0251 34.4556C49.1087 34.4982 49.204 34.4982 49.2876 34.5392C49.3081 34.5686 49.3008 34.5949 49.2935 34.6228C49.2685 34.7093 49.2407 34.7973 49.2128 34.8824C49.1776 34.9821 49.1439 35.0818 49.1072 35.1786C49.0295 35.384 48.9679 35.5907 48.9283 35.8019C48.921 35.8503 48.9048 35.8973 48.8931 35.9442C48.855 36.0791 48.7816 36.1891 48.6687 36.2786C48.481 36.4296 48.2977 36.5851 48.1129 36.7405C48.0836 36.764 48.0542 36.7904 48.0278 36.8138C48.0337 36.8402 48.0528 36.8373 48.0689 36.8373C48.1466 36.8388 48.2229 36.8388 48.3006 36.8432C48.3373 36.8432 48.3754 36.8476 48.4091 36.849C48.4267 36.8798 48.4091 36.8974 48.4018 36.915C48.2698 37.1702 48.1408 37.4254 48.0073 37.6777C47.9164 37.8522 47.8108 38.0164 47.6861 38.1689C47.5351 38.3508 47.3576 38.5033 47.164 38.6382C47.013 38.7438 46.8575 38.845 46.705 38.9477C46.6801 38.9653 46.6507 38.977 46.6317 39.0064C46.7123 39.0239 46.7827 39.0239 46.8619 39.0107C46.9177 39.0005 46.9719 38.9902 47.0276 38.9844C47.0584 38.98 47.0892 38.9829 47.1274 38.9829C47.1171 39.0063 47.1112 39.0254 47.1024 39.0415C46.7563 39.5842 46.3413 40.0608 45.8177 40.4377C45.696 40.5272 45.5684 40.6064 45.4335 40.6738C45.2267 40.778 45.0067 40.8454 44.7647 40.8645C44.775 40.885 44.7779 40.9011 44.7882 40.9114C44.841 40.9701 44.8923 41.0258 44.9422 41.083C44.9554 41.0962 44.9627 41.1153 44.973 41.1314C44.9657 41.1417 44.9613 41.149 44.9554 41.1519C44.8322 41.2003 44.7105 41.2516 44.5785 41.2722C44.4949 41.2854 44.4128 41.2898 44.3233 41.259C44.3277 41.2165 44.3292 41.1754 44.335 41.1373C44.401 40.7428 44.4861 40.3556 44.6078 39.9743C44.7281 39.5988 44.8879 39.2439 45.1006 38.914C45.3396 38.5356 45.5992 38.1704 45.8544 37.8038C46.1272 37.4151 46.3985 37.025 46.6683 36.6335C46.947 36.2258 47.1846 35.7946 47.3649 35.3356C47.5131 34.9572 47.6333 34.57 47.7052 34.1711C47.7228 34.0655 47.7345 33.957 47.7492 33.8485C47.7507 33.8353 47.7492 33.8221 47.7389 33.8059C47.7316 33.8265 47.7199 33.8485 47.714 33.8719C47.6113 34.2547 47.4603 34.6199 47.2946 34.9763C47.0159 35.5805 46.6845 36.1539 46.3032 36.7009C45.9629 37.1922 45.6197 37.6806 45.2795 38.1704C45.1153 38.4095 44.9583 38.6558 44.7985 38.8949C44.6093 39.1765 44.4758 39.4815 44.3776 39.8042C44.2514 40.2163 44.1517 40.6328 44.0799 41.0581C44.0329 41.3191 43.9933 41.5816 43.9596 41.8441C43.9097 42.2709 43.876 42.7006 43.8936 43.1303C43.9039 43.3723 43.9244 43.6113 43.9904 43.8445C43.9948 43.8577 43.9948 43.8709 43.9963 43.8856C43.9229 43.8255 43.8819 43.7477 43.8452 43.6685C43.7734 43.5116 43.7308 43.3459 43.703 43.1772C43.6604 42.9206 43.6428 42.6639 43.6399 42.4044C43.6384 42.18 43.6399 41.9556 43.6355 41.7341C43.6311 41.5523 43.6296 41.369 43.6164 41.1901C43.6091 41.0815 43.5871 40.9759 43.568 40.8689C43.5255 40.6313 43.4786 40.3937 43.4346 40.1576C43.4302 40.1312 43.4302 40.1048 43.4287 40.0681C43.527 40.1151 43.6032 40.1781 43.6986 40.2221C43.6971 40.1972 43.6986 40.1811 43.6942 40.1664C43.6399 39.9669 43.5915 39.766 43.5314 39.5695C43.4756 39.3906 43.4815 39.2117 43.524 39.0328C43.571 38.8421 43.6384 38.6602 43.7147 38.4799C43.8481 38.1704 44.0051 37.8756 44.1723 37.5838C44.5389 36.9444 44.9466 36.3299 45.3719 35.7271C45.3822 35.7139 45.3924 35.7007 45.4071 35.6831C45.4496 35.7139 45.457 35.755 45.4599 35.7946C45.4614 35.8533 45.4584 35.9119 45.4496 35.972C45.4394 36.0512 45.4247 36.1304 45.413 36.2096C45.4115 36.2214 45.4174 36.2331 45.4203 36.2698C45.5552 35.9911 45.6711 35.733 45.7928 35.4734C45.9145 35.2109 46.0362 34.9484 46.158 34.6859C46.2782 34.4248 46.4 34.1667 46.5187 33.9057C46.639 33.6461 46.7607 33.388 46.8781 33.1328C46.9147 33.1225 46.9323 33.1445 46.947 33.1621C47.0056 33.2281 47.0614 33.2956 47.1186 33.3586C47.1303 33.3748 47.1347 33.4012 47.1714 33.3938C47.1772 33.234 47.1787 33.0697 47.2139 32.9084C47.2462 32.7515 47.2828 32.596 47.3239 32.4391C47.3649 32.2822 47.4221 32.1282 47.4867 31.983C47.516 31.9771 47.516 31.9947 47.5175 32.0065C47.5439 32.1033 47.5717 32.2015 47.6011 32.2983C47.6084 32.3277 47.6187 32.3584 47.6333 32.4098C47.6656 32.2719 47.6627 32.1561 47.6832 32.0431C47.7067 31.9229 47.7243 31.8012 47.7448 31.6824C47.7653 31.565 47.7873 31.4492 47.8123 31.3333C47.8387 31.2189 47.8548 31.1016 47.9046 30.9799C47.9721 31.1383 48.0044 31.2952 48.0674 31.4433C48.0938 31.4316 48.0865 31.4125 48.085 31.3964C48.0748 31.194 48.066 30.9902 48.0557 30.7892C48.0469 30.6416 48.0733 30.4998 48.1349 30.3639C48.2551 30.1029 48.4091 29.8624 48.5866 29.6351L48.6233 29.5984C48.635 29.6087 48.6438 29.6145 48.6497 29.6219C48.877 29.9328 49.0515 30.2686 49.1351 30.6455C49.204 30.9608 49.1981 31.2717 49.1043 31.5782C49.0984 31.5944 49.094 31.6105 49.0911 31.6252C49.1116 31.6442 49.1263 31.6296 49.1395 31.6208C49.226 31.5665 49.3111 31.5122 49.3991 31.4609C49.4181 31.4477 49.4401 31.4375 49.468 31.4243C49.4724 31.4594 49.4753 31.4858 49.4783 31.5137C49.4944 31.8041 49.5105 32.093 49.5252 32.3834C49.5413 32.7412 49.5267 33.0961 49.4519 33.4452C49.38 33.7693 49.2568 34.0729 49.0808 34.353C49.0618 34.3823 49.0442 34.4131 49.0251 34.4424L49.0266 34.4395Z" fill="white"/>
<path d="M51.1019 41.8604C51.0902 41.8677 51.0785 41.878 51.0668 41.8838C50.7544 42.0539 50.4567 42.2505 50.1575 42.4455C49.9184 42.5995 49.6765 42.752 49.4213 42.8855C49.2365 42.9837 49.0444 43.0703 48.8449 43.1348C48.7584 43.1612 48.6704 43.1832 48.578 43.1891C48.4489 43.1949 48.3272 43.1627 48.2202 43.0923C48.1336 43.0336 48.0515 42.9661 47.9664 42.9045C47.9503 42.8913 47.9342 42.8781 47.9195 42.862C47.8447 42.7784 47.7597 42.7755 47.6643 42.8253C47.5851 42.8664 47.5162 42.9163 47.4473 42.972C47.3358 43.0688 47.2288 43.1671 47.1144 43.2624C47.0103 43.3489 46.9032 43.4369 46.7932 43.5161C46.7008 43.5836 46.5967 43.6334 46.4808 43.6569C46.3635 43.6803 46.2608 43.6496 46.164 43.5836C46.1025 43.541 46.0673 43.478 46.0482 43.4046C46.0277 43.3254 46.0247 43.2448 46.0321 43.1656C46.0394 43.0967 46.0511 43.0263 46.0585 42.9573C46.0643 42.9192 46.0687 42.8796 46.0658 42.8429C46.0614 42.7755 46.0189 42.7403 45.9514 42.752C45.9147 42.7579 45.8766 42.7682 45.8414 42.7843C45.7607 42.8224 45.6786 42.8635 45.6024 42.9119C45.3809 43.0453 45.1771 43.2052 44.9761 43.368C44.8353 43.4824 44.696 43.6012 44.5567 43.717C44.5332 43.7361 44.5098 43.7595 44.4848 43.7771C44.435 43.8138 44.3763 43.8094 44.3426 43.7698C44.3074 43.7287 44.3103 43.673 44.3528 43.629C44.3587 43.6217 44.369 43.6158 44.3763 43.6085C44.6696 43.3548 44.9673 43.1069 45.29 42.8913C45.422 42.8019 45.5569 42.7212 45.6992 42.6582C45.7827 42.6215 45.8678 42.5863 45.9573 42.579C45.9749 42.579 45.9925 42.5775 46.0101 42.5775C46.1318 42.579 46.2066 42.6391 46.2315 42.7593C46.255 42.8635 46.2476 42.9661 46.2256 43.0703C46.2154 43.1231 46.2066 43.1729 46.2007 43.2242C46.1963 43.255 46.1963 43.2873 46.2022 43.3196C46.2212 43.4574 46.3195 43.5264 46.4559 43.5014C46.5102 43.4897 46.5644 43.4706 46.6128 43.4457C46.6861 43.4046 46.758 43.3592 46.824 43.3064C46.9164 43.233 47.0059 43.1539 47.0968 43.0791C47.2053 42.9881 47.3109 42.8972 47.4209 42.8151C47.4795 42.7711 47.5441 42.7359 47.6101 42.7036C47.6511 42.6846 47.6951 42.6728 47.7391 42.6655C47.8286 42.6523 47.9049 42.6758 47.9708 42.7374C48.0236 42.7843 48.075 42.8327 48.1278 42.8767C48.1718 42.9133 48.2172 42.9456 48.2612 42.9793C48.3961 43.0717 48.5428 43.0908 48.7012 43.0571C48.883 43.0189 49.0546 42.9485 49.2233 42.8723C49.477 42.7564 49.7175 42.6112 49.958 42.469C50.1663 42.3414 50.3775 42.2182 50.5901 42.0965C50.75 42.0055 50.9172 41.9249 51.0975 41.8692L51.1019 41.8604Z" fill="white"/>
<defs>
<radialGradient id="paint0_radial_2031_76" cx="0" cy="0" r="1" gradientUnits="userSpaceOnUse" gradientTransform="translate(47.5 47.5) rotate(90) scale(47.5)">
<stop stop-color="#E7CEA8"/>
<stop offset="1" stop-color="#D4A357"/>
</radialGradient>
<radialGradient id="paint1_radial_2031_76" cx="0" cy="0" r="1" gradientUnits="userSpaceOnUse" gradientTransform="translate(47.5 47.5) rotate(90) scale(47.5)">
<stop stop-color="#E7CEA8"/>
<stop offset="1" stop-color="#D4A357"/>
</radialGradient>
<radialGradient id="paint2_radial_2031_76" cx="0" cy="0" r="1" gradientUnits="userSpaceOnUse" gradientTransform="translate(47.5 47.5) rotate(90) scale(47.5)">
<stop stop-color="#E7CEA8"/>
<stop offset="1" stop-color="#D4A357"/>
</radialGradient>
<radialGradient id="paint3_radial_2031_76" cx="0" cy="0" r="1" gradientUnits="userSpaceOnUse" gradientTransform="translate(47.5 47.5) rotate(90) scale(47.5)">
<stop stop-color="#E7CEA8"/>
<stop offset="1" stop-color="#D4A357"/>
</radialGradient>
<radialGradient id="paint4_radial_2031_76" cx="0" cy="0" r="1" gradientUnits="userSpaceOnUse" gradientTransform="translate(47.5 47.5) rotate(90) scale(47.5)">
<stop stop-color="#E7CEA8"/>
<stop offset="1" stop-color="#D4A357"/>
</radialGradient>
<radialGradient id="paint5_radial_2031_76" cx="0" cy="0" r="1" gradientUnits="userSpaceOnUse" gradientTransform="translate(47.5 47.5) rotate(90) scale(47.5)">
<stop stop-color="#E7CEA8"/>
<stop offset="1" stop-color="#D4A357"/>
</radialGradient>
<radialGradient id="paint6_radial_2031_76" cx="0" cy="0" r="1" gradientUnits="userSpaceOnUse" gradientTransform="translate(47.5 47.5) rotate(90) scale(47.5)">
<stop stop-color="#E7CEA8"/>
<stop offset="1" stop-color="#D4A357"/>
</radialGradient>
<radialGradient id="paint7_radial_2031_76" cx="0" cy="0" r="1" gradientUnits="userSpaceOnUse" gradientTransform="translate(47.5 47.5) rotate(90) scale(47.5)">
<stop stop-color="#E7CEA8"/>
<stop offset="1" stop-color="#D4A357"/>
</radialGradient>
<radialGradient id="paint8_radial_2031_76" cx="0" cy="0" r="1" gradientUnits="userSpaceOnUse" gradientTransform="translate(47.5 47.5) rotate(90) scale(47.5)">
<stop stop-color="#E7CEA8"/>
<stop offset="1" stop-color="#D4A357"/>
</radialGradient>
<radialGradient id="paint9_radial_2031_76" cx="0" cy="0" r="1" gradientUnits="userSpaceOnUse" gradientTransform="translate(47.5 47.5) rotate(90) scale(47.5)">
<stop stop-color="#E7CEA8"/>
<stop offset="1" stop-color="#D4A357"/>
</radialGradient>
<radialGradient id="paint10_radial_2031_76" cx="0" cy="0" r="1" gradientUnits="userSpaceOnUse" gradientTransform="translate(47.5 47.5) rotate(90) scale(47.5)">
<stop stop-color="#E7CEA8"/>
<stop offset="1" stop-color="#D4A357"/>
</radialGradient>
<radialGradient id="paint11_radial_2031_76" cx="0" cy="0" r="1" gradientUnits="userSpaceOnUse" gradientTransform="translate(47.5 47.5) rotate(90) scale(47.5)">
<stop stop-color="#E7CEA8"/>
<stop offset="1" stop-color="#D4A357"/>
</radialGradient>
<radialGradient id="paint12_radial_2031_76" cx="0" cy="0" r="1" gradientUnits="userSpaceOnUse" gradientTransform="translate(47.5 47.5) rotate(90) scale(47.5)">
<stop stop-color="#E7CEA8"/>
<stop offset="1" stop-color="#D4A357"/>
</radialGradient>
<radialGradient id="paint13_radial_2031_76" cx="0" cy="0" r="1" gradientUnits="userSpaceOnUse" gradientTransform="translate(47.5 47.5) rotate(90) scale(47.5)">
<stop stop-color="#E7CEA8"/>
<stop offset="1" stop-color="#D4A357"/>
</radialGradient>
<radialGradient id="paint14_radial_2031_76" cx="0" cy="0" r="1" gradientUnits="userSpaceOnUse" gradientTransform="translate(47.5 47.5) rotate(90) scale(47.5)">
<stop stop-color="#E7CEA8"/>
<stop offset="1" stop-color="#D4A357"/>
</radialGradient>
<radialGradient id="paint15_radial_2031_76" cx="0" cy="0" r="1" gradientUnits="userSpaceOnUse" gradientTransform="translate(47.5 47.5) rotate(90) scale(47.5)">
<stop stop-color="#E7CEA8"/>
<stop offset="1" stop-color="#D4A357"/>
</radialGradient>
<radialGradient id="paint16_radial_2031_76" cx="0" cy="0" r="1" gradientUnits="userSpaceOnUse" gradientTransform="translate(47.5 47.5) rotate(90) scale(47.5)">
<stop stop-color="#E7CEA8"/>
<stop offset="1" stop-color="#D4A357"/>
</radialGradient>
</defs>
</svg>
